Motion_mu03
version=1
nRows=13
nColumns=43
inDegrees=yes
endheader
time	pelvis_tilt	pelvis_list	pelvis_rotation	pelvis_tx	pelvis_ty	pelvis_tz	hip_flexion_r	hip_adduction_r	hip_rotation_r	knee_angle_r	ankle_angle_r	subtalar_angle_r	mtp_angle_r	hip_flexion_l	hip_adduction_l	hip_rotation_l	knee_angle_l	ankle_angle_l	subtalar_angle_l	mtp_angle_l	lumbar_extension	lumbar_bending	lumbar_rotation	neck_flexion	neck_lateral_bending	neck_rotation	arm_flex_r	arm_add_r	arm_rot_r	elbow_flex_r	pro_sup_r	wrist_flex_r	wrist_dev_r	hand_finger_flex_r	arm_flex_l	arm_add_l	arm_rot_l	elbow_flex_l	pro_sup_l	wrist_flex_l	wrist_dev_l	hand_finger_flex_l
      0.00250000	     -1.76793422	      3.78840042	    -88.71655040	      0.00746536	      0.96857892	      0.71892491	     11.33170929	     -1.43408955	     -5.69006677	    -21.82654837	      2.96682561	      1.20237018	     14.26525293	     -5.35684307	     -9.34763996	    -13.31061833	    -10.22324160	     -0.29131171	     28.53224245	     22.80660924	     -4.34600237	      2.54683948	      2.73802687	     38.53232549	     -4.34461599	     -8.25632215	    -36.13160234	   -139.97949378	   -128.00758511	     55.86746967	    120.42250646	     14.34633831	     -7.25658178	    -39.89101723	    142.40247735	    -23.71354039	     50.48915438	     47.16821271	    119.25671312	      9.37457673	      0.51716850	    -32.59130560
      0.00500000	     -1.74595191	      3.82001827	    -88.70908181	      0.00665106	      0.96911442	      0.71998206	     11.29081546	     -1.40611347	     -5.69752605	    -21.83331452	      2.95755767	      1.20788977	     14.26399735	     -5.35945535	     -9.38749444	    -13.29946350	    -10.23518173	     -0.30374029	     28.52743612	     22.80604657	     -4.31298770	      2.47932567	      2.73992989	     38.54411757	     -4.33561606	     -8.25474075	    -36.09677712	   -140.03498190	   -127.99629402	     55.86346942	    120.42444360	     14.35326982	     -7.25329019	    -39.88698234	    142.38380162	    -23.69997685	     50.50523014	     47.16322238	    119.25764269	      9.38337637	      0.51735661	    -32.59009752
      0.00750000	     -1.73293926	      3.99358543	    -88.42126133	      0.00673541	      0.96938779	      0.72095484	     11.19322376	     -1.48125236	     -6.09718678	    -21.43998673	      2.69975189	      1.40928259	     14.22583348	     -4.99320106	     -9.44150889	    -12.78667175	    -10.48154857	     -0.87958813	     28.35374341	     22.81664225	     -4.11742191	      2.51922630	      2.60687720	     38.73530022	     -4.49422947	     -8.14479192	    -35.57275621	   -140.11043316	   -127.26257699	     55.64174981	    120.48967048	     14.92379450	     -7.18176086	    -39.61270479	    142.58049275	    -23.63575444	     50.96007255	     46.87568018	    119.22097934	      9.94362952	      0.39853135	    -32.46856198
      0.01000000	     -1.70172975	      4.06067264	    -88.41298003	      0.00612286	      0.96980554	      0.72204692	     11.11471216	     -1.49363220	     -6.20932461	    -21.28746915	      2.66581094	      1.45246014	     14.22441746	     -4.90866034	     -9.45086108	    -12.64262568	    -10.56256677	     -0.97477392	     28.31496189	     22.83288047	     -4.02890200	      2.49319400	      2.63734975	     38.80289256	     -4.37705901	     -8.19747722	    -35.43571497	   -140.28478657	   -127.12285439	     55.42332096	    120.49752804	     15.05789801	     -7.14708916	    -39.55495505	    142.56287213	    -23.64395465	     51.03472535	     46.73593659	    119.18462602	     10.07088170	      0.37742759	    -32.43933051
      0.01250000	     -1.70546789	      4.18939789	    -88.12911981	      0.00592778	      0.97020114	      0.72289671	     11.07562897	     -1.52711257	     -6.64174769	    -21.11466829	      2.48060133	      1.69519695	     14.24306440	     -4.63005000	     -9.53506908	    -12.13559822	    -10.72270020	     -1.32801640	     28.08169821	     22.93880309	     -3.91413747	      2.49450129	      2.50642938	     38.94327907	     -4.61262633	     -8.26696606	    -34.99868070	   -140.23529940	   -126.56281557	     55.35493756	    120.44045431	     15.64500606	     -7.27988667	    -39.31857793	    142.75433617	    -23.54718978	     51.30616592	     46.52453774	    118.92617775	     10.69250503	      0.13341728	    -32.27923120
      0.01500000	     -1.68237214	      4.22123357	    -88.12934674	      0.00508246	      0.97076671	      0.72395145	     11.03363647	     -1.49929057	     -6.64900291	    -21.12185445	      2.47344936	      1.70023478	     14.24301474	     -4.62747061	     -9.57608090	    -12.12528514	    -10.73043276	     -1.33655682	     28.07756066	     22.93973380	     -3.88771643	      2.42595718	      2.51055347	     38.95128853	     -4.60072817	     -8.26993243	    -34.96672123	   -140.28211644	   -126.55662985	     55.34625474	    120.44063411	     15.65121423	     -7.27894696	    -39.31608107	    142.73610736	    -23.54858592	     51.31461100	     46.51137902	    118.92386759	     10.70046992	      0.13466965	    -32.27738207
      0.01750000	     -1.61656891	      4.35903372	    -87.96001930	      0.00490339	      0.97111738	      0.72500501	     10.89733204	     -1.58841459	     -6.88399688	    -20.70990208	      2.24258849	      1.92902140	     14.26768946	     -4.33985316	     -9.56877379	    -11.76480406	    -10.95078740	     -1.87807947	     27.94298048	     23.01415425	     -3.71299124	      2.38434798	      2.47096200	     39.02092222	     -4.67902437	     -8.30341193	    -34.58347605	   -140.37014731	   -125.99994065	     55.06725638	    120.40567745	     16.20762932	     -7.35332567	    -39.11118102	    142.83947916	    -23.43458844	     51.57669028	     46.17646248	    118.68380466	     11.24478435	      0.04928334	    -32.12648303
      0.02000000	     -1.59282469	      4.38904224	    -87.96189963	      0.00405117	      0.97169234	      0.72602850	     10.85884787	     -1.56180673	     -6.89627016	    -20.72164412	      2.23608617	      1.93266458	     14.26806780	     -4.33657215	     -9.61241121	    -11.75137377	    -10.95518027	     -1.88661966	     27.94004646	     23.01562983	     -3.69082041	      2.31778318	      2.48276625	     39.02959050	     -4.66737632	     -8.30669748	    -34.55693396	   -140.41601817	   -125.99093153	     55.06362102	    120.40527466	     16.21584462	     -7.35390984	    -39.10803830	    142.82460555	    -23.43877655	     51.58408388	     46.16394709	    118.68007946	     11.25376889	      0.05046838	    -32.12437444
      0.02250000	     -1.53694046	      4.52091884	    -87.80950743	      0.00388571	      0.97204901	      0.72705562	     10.76824333	     -1.65753189	     -7.23316742	    -20.40597223	      1.98865579	      2.19382168	     14.32455714	     -4.07396759	     -9.60805045	    -11.32840895	    -11.12872561	     -2.48160720	     27.81410191	     23.13575121	     -3.53859583	      2.28373621	      2.48848438	     39.12600302	     -4.73886222	     -8.35674656	    -34.10106796	   -140.45149781	   -125.36268803	     54.83839655	    120.34712991	     16.92262901	     -7.43528953	    -38.84989788	    142.95725903	    -23.31710997	     51.86589629	     45.82560670	    118.32596760	     11.88729825	     -0.01905948	    -31.96375876
      0.02500000	     -1.51356386	      4.54977454	    -87.80976886	      0.00304489	      0.97260849	      0.72806697	     10.72931982	     -1.63063565	     -7.24484159	    -20.41854637	      1.98330903	      2.19773425	     14.32548042	     -4.06926266	     -9.65057903	    -11.31546649	    -11.13331774	     -2.48868233	     27.81123830	     23.13793584	     -3.51824909	      2.21807949	      2.50304817	     39.13356735	     -4.72802440	     -8.35969532	    -34.07590330	   -140.49232793	   -125.35652654	     54.83380140	    120.34660079	     16.93012212	     -7.43474861	    -38.84717284	    142.94434822	    -23.32466467	     51.87123161	     45.81306649	    118.32154258	     11.89471434	     -0.01702959	    -31.96255552
      0.02750000	     -1.46157606	      4.66104212	    -87.67069375	      0.00280749	      0.97296912	      0.72908397	     10.62856257	     -1.71398158	     -7.55730100	    -20.12946049	      1.77054898	      2.48997505	     14.41538954	     -3.81402758	     -9.65245378	    -10.90384493	    -11.35146631	     -3.03657246	     27.67959655	     23.30898596	     -3.38978993	      2.18132593	      2.51990146	     39.20524159	     -4.79432214	     -8.39629344	    -33.64511255	   -140.52635770	   -124.78501432	     54.62613092	    120.27292458	     17.66130362	     -7.46153818	    -38.59377602	    143.05686894	    -23.20207772	     52.11857239	     45.49054380	    117.92536131	     12.45229858	     -0.04252925	    -31.85278630
      0.03000000	     -1.43949430	      4.68918833	    -87.67234128	      0.00197993	      0.97350559	      0.73009405	     10.59130042	     -1.68850009	     -7.56904315	    -20.14195923	      1.76556990	      2.49353719	     14.41660808	     -3.80842882	     -9.69548104	    -10.89104075	    -11.35590877	     -3.04347194	     27.67665689	     23.31167950	     -3.37164126	      2.11685732	      2.53460612	     39.21173408	     -4.78361410	     -8.39907579	    -33.62183294	   -140.56289565	   -124.77895390	     54.62033615	    120.27239519	     17.66917726	     -7.46020710	    -38.59122315	    143.04513190	    -23.21445277	     52.12258722	     45.47631488	    117.92111293	     12.45852588	     -0.03966609	    -31.85211804
      0.03250000	     -1.38736832	      4.78811166	    -87.71320458	      0.00133242	      0.97380288	      0.73103152	     10.50587959	     -1.71287590	     -7.74059736	    -19.84563296	      1.63881114	      2.62989484	     14.45946739	     -3.61565708	     -9.70059420	    -10.63877803	    -11.57598247	     -3.43083559	     27.63282824	     23.39222832	     -3.28165415	      2.07222250	      2.62392470	     39.19036694	     -4.69291984	     -8.42460950	    -33.34468582	   -140.73486349	   -124.44592027	     54.32013788	    120.24860156	     18.09880472	     -7.41407787	    -38.45060825	    143.14680831	    -23.18201074	     52.23878588	     45.23931215	    117.74965394	     12.72227374	     -0.01720120	    -31.79425752
